<svg version="1.1" id="Layer_1" xmlns="http://www.w3.org/2000/svg" x="0" y="0" viewBox="0 0 119.5 118.1" xml:space="preserve">
  <style>
    .st0{fill:#184428}.st1{fill:#168bcb}.st2{fill:#68c786}
  </style>
  <g id="back">
    <path class="st0" d="M18.5 15.1h8.1l19 63.1h-8.5zM37.1 14.8h8.1l19 63h-8.5zM56.1 14.8h8.1l19 63h-8.5zM75.1 14.8h8.1l19 63h-8.5z"/>
  </g>
  <g id="front">
    <path class="st1" d="M64.2 14.8h-8.1l-19 63.4h8.5z"/>
    <path class="st2" d="M83.2 14.8h-8.1l-19.4 63h8.5z"/>
    <path class="st1" d="M101.7 14.8h-8l-19 63h8.5z"/>
    <path class="st2" d="m13.9 68.4 4 18.6 13.6-13.6z"/>
    <path class="st1" d="M100.1 0 88.8 14.8l17.9 3.3z"/>
    <path class="st2" d="M45.2 14.8h-8.1l-19.9 63h8.5z"/>
  </g>
  <text transform="matrix(1.25 0 0 1 16.7825 110.4302)" class="st1" font-size="30.74" font-family="MyriadPro-BoldCond">SONOC</text>
</svg>
