<svg xmlns="http://www.w3.org/2000/svg" viewBox="0 0 1536 1536" style="fill:white;">
  <path d="M768 1536c-103.67 0-204.25-20.31-298.95-60.36-91.46-38.68-173.59-94.05-244.11-164.58-70.52-70.52-125.9-152.65-164.58-244.11C20.31 972.25 0 871.67 0 768s20.31-204.25 60.36-298.95c38.68-91.46 94.05-173.59 164.58-244.11 70.52-70.52 152.65-125.9 244.11-164.58C563.75 20.31 664.33 0 768 0s204.25 20.31 298.95 60.36c91.46 38.68 173.59 94.05 244.11 164.58 70.52 70.52 125.9 152.65 164.58 244.11C1515.69 563.75 1536 664.33 1536 768s-20.31 204.25-60.36 298.95c-38.68 91.46-94.05 173.59-164.58 244.11-70.52 70.52-152.65 125.9-244.11 164.58C972.25 1515.69 871.67 1536 768 1536Zm0-1488C370.99 48 48 370.99 48 768s322.99 720 720 720 720-322.99 720-720S1165.01 48 768 48Z"/>
  <path d="M1269.14 1341.88c-11.04 0-20.98-7.67-23.43-18.9-43.15-198.05-221.84-341.8-424.88-341.8H715.18c-203.04 0-381.73 143.75-424.88 341.8-2.82 12.95-15.61 21.16-28.56 18.34-12.95-2.82-21.16-15.61-18.34-28.56 11.66-53.49 32.23-104.26 61.17-150.91 28.37-45.74 63.95-86.21 105.74-120.27 42.16-34.36 89.35-61.15 140.27-79.61 52.69-19.11 108.07-28.79 164.61-28.79h105.65c56.54 0 111.92 9.69 164.61 28.79 50.91 18.46 98.11 45.25 140.27 79.61 41.79 34.06 77.37 74.53 105.74 120.27 28.93 46.64 49.51 97.41 61.17 150.91 2.82 12.95-5.39 25.74-18.34 28.56-1.72.38-3.44.55-5.13.55Z"/>
  <path d="M768 981.18c-82.91 0-160.86-32.29-219.49-90.92-58.63-58.63-90.92-136.58-90.92-219.49s32.29-160.86 90.92-219.49c58.63-58.63 136.58-90.92 219.49-90.92s160.87 32.29 219.49 90.92c58.63 58.63 90.92 136.58 90.92 219.49s-32.29 160.86-90.92 219.49S850.91 981.18 768 981.18Zm0-572.82c-144.69 0-262.41 117.72-262.41 262.41S623.31 933.18 768 933.18s262.41-117.72 262.41-262.41S912.69 408.36 768 408.36Z"/>
</svg>